<svg width="134" height="40" fill="none" xmlns="http://www.w3.org/2000/svg"><path d="M30.39 26.955h-.006l-8.372 3.173-10.856-5.28 2.16-9.664 13.986-5.307.005.005 5.743-2.175L27.526 5 9.45 11.862 6 27.32 21.794 35l18.08-6.857L41 22.933l-10.61 4.022Z" fill="url(#a)"/><path d="M40.911 22.244 43 12.648 33.42 8 28 10.036l10.154 4.927L36.188 24M50.883 9.805h8.951c6.134 0 6.422 4.245 5.839 7.075-.878 4.309-3.605 7.252-9.443 7.252H53.7L51.84 33.23H46l4.883-23.425ZM54.58 20h1.56c2.332 0 3.112-1.372 3.512-2.943.394-1.762 0-3.134-2.332-3.134h-1.476L54.58 20ZM68.202 9.805h5.55l-4.868 23.347H63.34l4.862-23.347ZM72.973 20.976c.583-2.447 1.553-3.82 3.112-4.704 1.56-.885 3.113-1.175 5.453-1.175 4.574 0 6.323 1.472 5.543 5.193l-1.848 9.112c-.295 1.373-.583 3.042-.098 3.828H79.78a7.407 7.407 0 0 1 .098-2.06h-.098a6.142 6.142 0 0 1-2.147 1.797 6.1 6.1 0 0 1-2.715.652c-3.21 0-4.672-1.57-3.892-5.391a6.392 6.392 0 0 1 1.092-2.624 6.337 6.337 0 0 1 2.118-1.883c1.553-.785 3.696-1.075 5.354-1.471 1.659-.396 2.108-.708 2.431-2.052.197-1.082-.196-1.769-1.363-1.769-1.56 0-2.108.885-2.53 2.448h-5.156v.1Zm4.574 9.02c1.166 0 2.332-.594 2.726-2.454.288-1.465.485-2.35.703-3.135-1.947.885-2.727.885-3.31 1.274a2.608 2.608 0 0 0-1.264 1.96c-.317 1.471.07 2.356 1.145 2.356ZM97.978 22.158c.584-2.646.099-3.63-1.363-3.63-1.847 0-2.529 2.257-3.309 5.88-.871 4.018-.97 5.78.878 5.78 1.659 0 2.242-1.076 3.015-4.21h5.164c-1.174 5.483-3.893 7.64-8.959 7.64-7.025 0-6.618-4.704-5.543-9.904 1.068-4.994 3.31-8.624 9.436-8.624 5.937 0 6.815 2.943 5.937 7.153h-5.255v-.085Z" fill="#2C2F3E"/><path d="m108.005 25.193-.197 1.075c-.583 2.745-.387 4.118 1.166 4.118s2.143-.984 2.726-3.233h5.157c-.969 4.407-3.892 6.466-8.564 6.466-7.026 0-6.612-4.705-5.544-9.905 1.068-4.994 3.309-8.624 9.436-8.624 6.914 0 6.52 4.118 5.354 10.195h-9.534v-.092Zm4.672-3.035c.485-2.455.485-3.828-1.075-3.828-1.848 0-2.431 1.472-2.916 3.828h3.991Z" fill="#2C2F3E"/><path d="M119.991 19.215h-2.34l.78-3.623h2.333l1.075-5.2h5.621l-1.068 5.2h2.627l-.78 3.623h-2.627l-1.848 8.914c-.295 1.273.098 1.67 1.454 1.67.264.016.529-.018.78-.1l-.78 3.538c-1.068.092-2.108.19-3.211.19-3.892 0-4.862-.707-3.983-4.796l1.967-9.416Z" fill="#2C2F3E"/><defs><linearGradient id="a" x1="6" y1="20.003" x2="41" y2="20.003" gradientUnits="userSpaceOnUse"><stop stop-color="#F9A54B"/><stop offset=".16" stop-color="#F99E4A"/><stop offset=".64" stop-color="#F98C49"/><stop offset="1" stop-color="#F98648"/></linearGradient></defs></svg>