<?xml version="1.0" encoding="UTF-8"?>
<svg xmlns="http://www.w3.org/2000/svg" width="82" height="39" viewBox="0 0 82 39" fill="none">
  <path d="M81.0238 31.4799C80.6505 31.3431 80.1733 31.2381 79.5961 31.2381C77.4255 31.2381 76.0227 32.745 76.0227 34.65C76.0227 36.5645 77.4255 38.0714 79.5961 38.0714C80.185 38.0714 80.6574 37.9691 81.0238 37.8348V36.21C80.8058 36.3413 80.3371 36.574 79.6624 36.574C78.4586 36.574 77.6719 35.8347 77.6719 34.65C77.6719 33.4748 78.4586 32.7355 79.6624 32.7355C80.3371 32.7355 80.8058 32.9682 81.0238 33.0995V31.4799Z" fill="#212147"></path>
  <path fill-rule="evenodd" clip-rule="evenodd" d="M46.3838 36.0717C46.3838 35.304 45.9573 34.669 45.1516 34.4699C45.7392 34.2614 46.1373 33.7496 46.1373 33.0293C46.1373 32.0721 45.417 31.3234 43.6445 31.3234H41V37.9861H43.7677C45.616 37.9861 46.3838 37.2563 46.3838 36.0717ZM43.6255 32.6313C44.327 32.6313 44.6113 32.8967 44.6113 33.3232C44.6113 33.7686 44.327 34.015 43.6255 34.015H42.5545V32.6313H43.6255ZM44.8293 35.9769C44.8293 36.4034 44.5165 36.6782 43.7772 36.6782H42.5545V35.2471H43.7393C44.4881 35.2471 44.8293 35.503 44.8293 35.9769Z" fill="#212147"></path>
  <path fill-rule="evenodd" clip-rule="evenodd" d="M53.0539 36.8014L53.5278 37.9861H55.215L52.2767 31.3234H51.2814L48.3147 37.9861H50.0018L50.4852 36.8014H53.0539ZM50.9876 35.4651L51.7648 33.5885L52.5515 35.4651H50.9876Z" fill="#212147"></path>
  <path d="M59.1947 36.5929H62.2278V37.9861H57.6023V31.3234H59.1947V36.5929Z" fill="#212147"></path>
  <path d="M69.0685 32.7261V31.3234H63.1255V32.7261H65.296V37.9861H66.8884V32.7261H69.0685Z" fill="#212147"></path>
  <path d="M71.6131 37.9861V31.3234H73.2055V37.9861H71.6131Z" fill="#212147"></path>
  <path d="M81.4391 27.075H41.0752V27.7692H81.4391V27.075Z" fill="#E40521"></path>
  <path d="M53.6262 14.3839C53.6262 16.6993 51.7056 18.5587 49.3938 18.5587C47.0463 18.5587 45.1613 16.6642 45.1613 14.3839C45.1613 12.0684 47.0819 10.209 49.3938 10.209C51.7412 10.209 53.6262 12.0684 53.6262 14.3839ZM61.0241 21.3653L57.4318 12.0333C56.4004 8.59523 53.1994 6.10436 49.3938 6.10436C44.7701 6.10436 41 9.82312 41 14.4189C41 18.9797 44.7701 22.6984 49.3938 22.6984C52.0968 22.6984 54.4442 21.4355 55.9736 19.541L56.6849 21.4004H61.0241V21.3653Z" fill="#212147"></path>
  <path d="M74.0059 14.3839C74.0059 16.6993 72.1209 18.5587 69.7735 18.5587C67.4261 18.5587 65.541 16.6993 65.541 14.3839C65.541 12.0684 67.4261 10.209 69.7735 10.209C72.1209 10.209 74.0059 12.0684 74.0059 14.3839ZM81.2971 21.26L73.508 -9.53674e-06H69.1688L71.4807 6.20961C70.9116 6.10436 70.307 6.03419 69.7023 6.03419C65.0787 6.03419 61.3086 9.75295 61.3086 14.3488C61.3086 18.9446 65.0787 22.6283 69.7023 22.6283C72.4054 22.6283 74.7884 21.3653 76.3178 19.4007L76.9935 21.26H81.2971Z" fill="#212147"></path>
  <path d="M68.8128 4.13992L67.2834 0.0352631H55.7598L57.2891 4.13992H68.8128Z" fill="#212147"></path>
  <path d="M0.488281 -9.53674e-06L20.5002 20.4615L40.5121 -9.53674e-06H0.488281Z" fill="#E40521"></path>
</svg>
