<?xml version="1.0" encoding="utf-8"?>
<!-- Generator: Adobe Illustrator 28.0.0, SVG Export Plug-In . SVG Version: 6.00 Build 0)  -->
<svg version="1.1" id="Layer_1" xmlns="http://www.w3.org/2000/svg" xmlns:xlink="http://www.w3.org/1999/xlink" x="0px" y="0px"
	 viewBox="0 0 217.1 79.8" style="enable-background:new 0 0 217.1 79.8;" xml:space="preserve">
<style type="text/css">
	.st0{fill-rule:evenodd;clip-rule:evenodd;fill:#1F292F;}
	.st1{fill-rule:evenodd;clip-rule:evenodd;fill:#FFFFFF;filter:url(#Adobe_OpacityMaskFilter);}
	.st2{mask:url(#mask0_4486_833_00000117670011942939800110000004003721559818491539_);}
	.st3{fill-rule:evenodd;clip-rule:evenodd;fill:#65B200;}
</style>
<g>
	<path class="st0" d="M204.3,20.5c-5.9,0-9.2,3-10.8,6.4h-0.1v-5.6h-8.4v2c2.4,4.2,3.7,9.1,3.7,14.4c0,5.3-1.3,10.1-3.7,14.4v4h8.8
		v-19c0-4.6,2.3-8.8,8.1-8.8c6.2,0,6.5,6.4,6.5,10.2v17.6h8.8V34.2C217.1,27.1,213.7,20.5,204.3,20.5"/>
	<path class="st0" d="M0,21.3h8.4v5.4h0.1c1.5-3.3,4.9-6.3,10.8-6.3c5.4,0,9.2,2.1,11,6.4c2.6-4.4,6.3-6.4,11.6-6.4
		c9.4,0,12.7,6.6,12.7,14.9v20.7h-8.8V36.4c0-4.3-1.3-8.1-6.5-8.1c-5.5,0-7.6,4.5-7.6,9v18.8h-8.8V35.4c0-4.3-1.8-7.1-6-7.1
		c-5.8,0-8.1,4.2-8.1,8.8v19H0V21.3z"/>
	<path class="st0" d="M82.4,51.4h-0.2c-2.5,3.9-6.6,5.7-11.3,5.7c-6.5,0-12.8-3.6-12.8-10.5c0-11.3,13.3-12.1,22.1-12.1h2.2v-0.9
		c0-4.3-3.4-6.5-8.1-6.5c-3.7,0-7,1.5-9.4,3.6l-4.6-4.6c3.9-3.9,9.4-5.6,14.9-5.6c15,0,15,10.7,15,15.7v20h-7.9V51.4z M81.8,40.6H80
		c-4.8,0-13.2,0.4-13.2,5.4c0,3.2,3.3,4.6,6.1,4.6c6,0,8.9-3.1,8.9-8V40.6z"/>
	<path class="st0" d="M128,37.9c0-3.7,0.6-7.1,1.8-10.3c-3-4.3-7.9-7.1-14.3-7.1c-5,0-9.6,1.9-12.2,6.1h-0.1v-5.3h-8.5v51.8h8.9V52
		h0.2c1.9,2.3,5.4,5.3,12.1,5.3c6.3,0,11.4-3.1,14.4-8C128.8,45.8,128,41.9,128,37.9 M113.7,49.5c-6.5,0-10.5-5-10.5-10.5
		c0-5.5,3.9-10.5,10.5-10.5c6.5,0,10.5,5.1,10.5,10.5C124.2,44.4,120.2,49.5,113.7,49.5"/>
	<defs>
		<filter id="Adobe_OpacityMaskFilter" filterUnits="userSpaceOnUse" x="128.3" y="10.9" width="56.6" height="69">
			<feColorMatrix  type="matrix" values="1 0 0 0 0  0 1 0 0 0  0 0 1 0 0  0 0 0 1 0"/>
		</filter>
	</defs>
	
		<mask maskUnits="userSpaceOnUse" x="128.3" y="10.9" width="56.6" height="69" id="mask0_4486_833_00000117670011942939800110000004003721559818491539_">
		<path class="st1" d="M128.3,79.8h56.6v-69h-56.6V79.8L128.3,79.8z"/>
	</mask>
	<g class="st2">
		<path class="st3" d="M174.3,37.6c0,8.9-7.3,16.1-16.2,16.1c-9,0-16.2-7.2-16.2-16.1c0-8.9,7.3-16.1,16.2-16.1
			C167.1,21.4,174.3,28.6,174.3,37.6L174.3,37.6z M128.3,79.8L147.5,62c12.3,5.3,26.9,0.7,33.8-11.2c7.4-12.8,3-29.1-9.8-36.4
			c-12.8-7.4-29.2-3-36.6,9.8c-6.1,10.4-4.2,23.2,3.7,31.6L128.3,79.8z"/>
	</g>
</g>
</svg>
