<svg xmlns="http://www.w3.org/2000/svg" width="106" height="32"><path fill-rule="evenodd" d="M2.238 29.754h101.53V2.248H2.237v27.506ZM0 32h106V0H0zm87.695-14.473H83.91l1.884-4.429zm-.97-6.757h-1.792L80.09 21.93h1.981l1.128-2.676h5.203l1.115 2.676 2.042.005-4.833-11.165Zm-15.421.078h1.937l-.005 9.306 5.79.002v1.774l-7.725-.002zm-5.742 6.676-3.793.003 1.89-4.43zm-.972-6.754-1.794-.003-4.845 11.16h1.979l1.133-2.678h5.207l1.111 2.679h2.047zM52.94 22.085c-1.693 0-2.791-.791-3.518-1.788l1.277-1.312c.639.814 1.287 1.299 2.214 1.299 1.033 0 1.742-.7 1.745-2.175v-7.263h1.986l-.002 7.312c0 2.63-1.526 3.927-3.702 3.927m-12.436-4.831v4.671l-1.935-.002.003-11.08 1.932.003v4.607h5.244v-4.607l1.937-.003-.003 11.085-1.934-.003v-4.671zm-8.817-7.325c.96 0 1.413-.7 1.764-1.966l-1.051-.33c-.236.532-.413.787-.868.787-.567-.003-1.4-.63-2.262-.633-.964.002-1.416.7-1.762 1.98l1.059.312c.227-.531.407-.784.86-.789.562.005 1.396.64 2.26.64Zm-1.222 2.514c2.182 0 3.743 1.792 3.743 3.957s-1.53 3.928-3.716 3.928c-2.188 0-3.74-1.794-3.74-3.961 0-2.165 1.524-3.924 3.713-3.924m0 9.666c3.379 0 5.76-2.606 5.76-5.742 0-3.128-2.352-5.716-5.733-5.716-3.377 0-5.768 2.612-5.768 5.749-.002 3.135 2.36 5.71 5.741 5.71Zm-11.569-9.496c1.447 0 2.376.682 2.374 1.997 0 1.187-.908 1.99-2.374 1.99H16.65v-3.987zm-.06 5.747c2.414 0 4.402-1.295 4.402-3.796 0-2.266-1.624-3.725-4.184-3.72l-4.333-.005-.002 11.084h1.93V18.36z"/></svg>