<svg xmlns="http://www.w3.org/2000/svg" fill="none" viewBox="0 0 150 28" id="svg_dark" width="100%" height="100%"><defs><linearGradient id="sf_d" x1="24.824" x2="32.008" y1="19.667" y2="7.912" gradientUnits="userSpaceOnUse"><stop offset=".013" stop-color="#077D43"></stop><stop offset=".125" stop-color="#0A7D4D"></stop><stop offset=".306" stop-color="#0B7F4D"></stop><stop offset=".462" stop-color="#1DA64D"></stop><stop offset=".543" stop-color="#28BD4E"></stop><stop offset=".647" stop-color="#36D94E"></stop><stop offset=".755" stop-color="#37DC4E"></stop></linearGradient><linearGradient id="sf_c" x1="35.06" x2="50.003" y1="25.293" y2="-.749" gradientUnits="userSpaceOnUse"><stop stop-color="#56DD6F"></stop><stop offset=".904" stop-color="#22C23D"></stop></linearGradient><linearGradient id="sf_b" x1="13.808" x2="12.594" y1="27.23" y2=".385" gradientUnits="userSpaceOnUse"><stop stop-color="#098B4E"></stop><stop offset=".326" stop-color="#067A41"></stop><stop offset=".656" stop-color="#06753F"></stop><stop offset="1" stop-color="#066939"></stop></linearGradient><linearGradient id="sf_a" x1="13.71" x2="13.224" y1="22.63" y2="11.924" gradientUnits="userSpaceOnUse"><stop stop-color="#098B4E"></stop><stop offset=".326" stop-color="#067A41"></stop><stop offset=".656" stop-color="#06753F"></stop><stop offset="1" stop-color="#066939"></stop></linearGradient></defs><g><mask id="sf_e" width="49" height="28" x="0" y="0" maskUnits="userSpaceOnUse" style="mask-type:luminance"><path fill="#fff" d="M49 .777H.778v26.444H49V.777Z"></path></mask><g mask="url(#sf_e)"><path fill="url(#sf_d)" fill-rule="evenodd" d="M24.889 18.889c6.158-7.427 11.363-12.032 17.347-15.61 5.675-3.395 8.28-4.496 5.861 4.311a77.17 77.17 0 0 1-.34 1.208c-2.136 7.354-4.601 11.675-6.178 13.802-.297.4-.562.724-.788.974-2.42 2.844-4.417 3.648-5.906 3.648-3.78 0-7.924-4.59-9.996-7.078-2.072 2.489-6.216 7.078-9.996 7.078-1.49 0-3.487-.804-5.906-3.648C7.5 21.923 4.286 17.131 1.681 7.59c-2.42-8.807.186-7.706 5.861-4.312 5.983 3.579 11.19 8.185 17.347 15.611Z" clip-rule="evenodd"></path><path fill="#37DC4E" d="M42.236 3.278c-5.983 3.579-11.19 8.184-17.347 15.61l.285.345.114.14.164.187c1.775 2.098 6.089 7.057 9.913 6.987 1.392-.025 3.246-.813 5.458-3.52.678-.783 1.742-2.301 2.92-4.736 1.24-2.21 2.666-5.313 4.014-9.493.115-.394.228-.796.34-1.208 2.42-8.807-.186-7.706-5.861-4.312Z"></path><path fill="url(#sf_c)" fill-rule="evenodd" d="M35.233 25.897c1.333 0 3.121-.721 5.287-3.275 1.333-1.482 4.21-5.784 6.542-14.35 2.166-7.906-.166-6.918-5.248-3.87-5.507 3.302-10.278 7.578-15.995 14.577 1.633 2.006 5.717 6.918 9.414 6.918Z" clip-rule="evenodd"></path><path fill="url(#sf_b)" fill-rule="evenodd" d="M14.892 27.222c-1.488 0-3.486-.804-5.905-3.648C7.5 21.923 4.286 17.131 1.681 7.59c-2.42-8.807.186-7.706 5.861-4.312 6.15 3.678 11.479 8.442 17.864 16.238-1.824 2.235-6.385 7.706-10.514 7.706Z" clip-rule="evenodd"></path><path fill="url(#sf_a)" fill-rule="evenodd" d="M14.797 26.551c-1.355 0-3.174-.734-5.377-3.33-1.356-1.508-4.282-5.884-6.654-14.596C.563.584 2.936 1.59 8.104 4.688c5.6 3.358 10.453 7.708 16.268 14.827-1.661 2.04-5.815 7.036-9.575 7.036Z" clip-rule="evenodd"></path></g><path fill="#1C1C1C" d="M92.595 7h-3.212v15.18h3.212V7Zm-37.373.659h3.601l2.53 10.182 2.92-10.182h2.725l2.92 10.182 2.53-10.182h3.602l-4.088 14.52h-3.893l-2.433-8.58-2.433 8.58H59.31l-4.088-14.52Z"></path><path fill="#1C1C1C" fill-rule="evenodd" d="M87.047 22.179h-3.211v-.943c-.682.754-1.752 1.226-3.212 1.226-2.822 0-5.06-2.357-5.06-5.468 0-3.112 2.335-5.469 5.06-5.469 1.46 0 2.433.472 3.212 1.226v-.943h3.211V22.179Zm-3.211-5.185c0-1.603-1.07-2.546-2.53-2.546-1.46 0-2.531.943-2.531 2.546 0 1.602 1.07 2.545 2.53 2.545 1.46 0 2.53-.943 2.53-2.546l.001.001Z" clip-rule="evenodd"></path><path fill="#1C1C1C" d="M94.93 7h3.212v15.18h-3.211L94.93 7Z"></path><path fill="#1C1C1C" fill-rule="evenodd" d="M107.875 18.973c-.39.377-1.168.754-2.044.754-1.168 0-2.142-.377-2.628-1.414h7.591c.097-.377.097-.754.097-1.226 0-3.11-2.335-5.468-5.45-5.468-3.308 0-5.645 2.357-5.645 5.468 0 3.111 2.337 5.469 5.938 5.469 2.044 0 3.6-.755 4.671-2.169l-2.53-1.414Zm-2.239-4.62c.973 0 1.849.377 2.239 1.603H103.3c.292-1.037 1.168-1.603 2.336-1.603Z" clip-rule="evenodd"></path><path fill="#1C1C1C" d="M120.624 19.068c0 2.357-2.141 3.394-4.477 3.394-2.141 0-3.796-.755-4.575-2.452l2.726-1.508c.292.754.875 1.226 1.849 1.226.778 0 1.167-.189 1.167-.66 0-.407-.68-.595-1.551-.835-1.55-.427-3.703-1.02-3.703-3.314 0-2.262 1.946-3.394 4.184-3.394 1.752 0 3.211.755 4.185 2.263l-2.725 1.414c-.292-.566-.681-.943-1.46-.943-.584 0-.876.189-.876.566.035.439.718.612 1.581.83 1.548.392 3.675.93 3.675 3.413Zm5.353-.566v-3.677h2.335v-3.017h-2.238V8.885l-3.212.943v1.98h-1.752v3.017h1.752v3.677c0 2.828 1.168 4.054 5.353 3.677V19.35c-1.46.094-2.238 0-2.238-.848Z"></path><path fill="#1C1C1C" fill-rule="evenodd" d="M135.224 19.727c.875 0 1.654-.377 2.043-.754l2.531 1.414c-1.07 1.414-2.628 2.169-4.672 2.169-3.601 0-5.936-2.358-5.936-5.469 0-3.11 2.335-5.468 5.645-5.468 3.113 0 5.449 2.357 5.449 5.468 0 .472 0 .849-.097 1.226h-7.592c.488 1.037 1.46 1.414 2.629 1.414Zm1.946-3.771c-.292-1.226-1.265-1.603-2.238-1.603-1.168 0-2.044.566-2.337 1.603h4.575Z" clip-rule="evenodd"></path><path fill="#1C1C1C" d="M148.556 15.107V11.62c-1.363 0-2.823.66-3.212 2.074v-1.885h-3.212v10.37h3.212v-4.714c0-2.074 1.849-2.545 3.212-2.356v-.002Z"></path></g></svg>